<svg id="svg" version="1.1" xmlns="http://www.w3.org/2000/svg" xmlns:xlink="http://www.w3.org/1999/xlink" width="400" height="400" viewBox="0, 0, 400,400"><g id="svgg"><path id="path0" d="M73.420 85.442 C 66.526 87.109,63.260 91.692,62.902 100.200 C 62.366 112.908,66.970 117.237,81.788 117.961 C 92.499 118.483,93.380 119.108,97.766 129.287 C 98.931 131.989,102.592 140.500,105.902 148.200 C 131.289 207.257,139.897 227.300,153.056 258.000 C 174.351 307.681,174.718 308.346,183.099 312.506 C 194.332 318.082,213.651 316.173,221.835 308.678 C 226.130 304.745,226.809 303.440,238.096 277.400 C 240.957 270.800,244.823 261.890,246.688 257.600 C 248.553 253.310,251.480 246.560,253.192 242.600 C 258.021 231.429,262.342 221.458,266.798 211.200 C 269.044 206.030,272.010 199.190,273.389 196.000 C 276.136 189.643,284.220 171.018,290.491 156.600 C 292.691 151.540,295.530 144.970,296.799 142.000 C 307.251 117.532,306.328 118.558,318.410 117.967 C 326.397 117.577,329.678 116.811,332.452 114.689 C 340.112 108.830,339.255 91.817,331.057 87.013 C 327.193 84.748,327.666 84.768,282.891 84.889 L 241.800 85.000 239.448 85.948 C 233.568 88.319,230.791 93.253,230.753 101.400 C 230.695 113.683,235.289 117.368,251.400 117.965 C 262.194 118.364,263.692 119.040,263.692 123.512 C 263.692 125.565,263.181 126.922,256.183 143.445 C 247.890 163.026,246.763 165.689,243.001 174.600 C 240.865 179.660,238.346 185.600,237.403 187.800 C 236.461 190.000,233.756 196.390,231.394 202.000 C 229.032 207.610,226.060 214.630,224.790 217.600 C 223.521 220.570,220.771 227.050,218.679 232.000 C 202.428 270.463,202.866 269.600,199.600 269.600 C 196.722 269.600,195.560 267.370,184.798 241.200 C 183.758 238.670,180.971 232.010,178.606 226.400 C 176.240 220.790,173.182 213.500,171.809 210.200 C 170.436 206.900,167.647 200.240,165.611 195.400 C 162.026 186.878,152.136 163.260,147.019 151.000 C 145.642 147.700,143.116 141.670,141.406 137.600 C 133.248 118.181,133.131 118.367,153.800 117.956 C 170.398 117.627,172.197 117.226,175.889 113.031 C 178.420 110.156,179.002 107.931,178.986 101.200 C 178.962 91.233,176.024 86.937,168.080 85.250 C 164.597 84.510,76.534 84.689,73.420 85.442 " stroke="none" fill="#f7f7f7" fill-rule="evenodd"></path><path id="path1" d="M3.900 4.008 L -0.000 7.963 0.000 199.732 C 0.000 369.706,0.068 391.559,0.600 392.000 C 0.930 392.274,1.200 392.842,1.200 393.263 C 1.200 393.683,2.499 395.326,4.086 396.914 L 6.972 399.800 199.523 399.902 L 392.074 400.004 396.039 396.039 L 400.004 392.074 399.902 199.515 L 399.800 6.956 396.290 3.478 L 392.781 0.000 200.290 0.026 L 7.800 0.052 3.900 4.008 M168.080 85.250 C 176.024 86.937,178.962 91.233,178.986 101.200 C 179.002 107.931,178.420 110.156,175.889 113.031 C 172.197 117.226,170.398 117.627,153.800 117.956 C 133.131 118.367,133.248 118.181,141.406 137.600 C 143.116 141.670,145.642 147.700,147.019 151.000 C 152.136 163.260,162.026 186.878,165.611 195.400 C 167.647 200.240,170.436 206.900,171.809 210.200 C 173.182 213.500,176.240 220.790,178.606 226.400 C 180.971 232.010,183.758 238.670,184.798 241.200 C 195.560 267.370,196.722 269.600,199.600 269.600 C 202.866 269.600,202.428 270.463,218.679 232.000 C 220.771 227.050,223.521 220.570,224.790 217.600 C 226.060 214.630,229.032 207.610,231.394 202.000 C 233.756 196.390,236.461 190.000,237.403 187.800 C 238.346 185.600,240.865 179.660,243.001 174.600 C 246.763 165.689,247.890 163.026,256.183 143.445 C 266.878 118.194,266.943 118.540,251.400 117.965 C 235.289 117.368,230.695 113.683,230.753 101.400 C 230.791 93.253,233.568 88.319,239.448 85.948 L 241.800 85.000 282.891 84.889 C 327.666 84.768,327.193 84.748,331.057 87.013 C 339.255 91.817,340.112 108.830,332.452 114.689 C 329.678 116.811,326.397 117.577,318.410 117.967 C 306.328 118.558,307.251 117.532,296.799 142.000 C 295.530 144.970,292.691 151.540,290.491 156.600 C 284.220 171.018,276.136 189.643,273.389 196.000 C 272.010 199.190,269.044 206.030,266.798 211.200 C 262.342 221.458,258.021 231.429,253.192 242.600 C 251.480 246.560,248.553 253.310,246.688 257.600 C 244.823 261.890,240.957 270.800,238.096 277.400 C 226.809 303.440,226.130 304.745,221.835 308.678 C 213.651 316.173,194.332 318.082,183.099 312.506 C 174.718 308.346,174.351 307.681,153.056 258.000 C 139.897 227.300,131.289 207.257,105.902 148.200 C 102.592 140.500,98.931 131.989,97.766 129.287 C 93.380 119.108,92.499 118.483,81.788 117.961 C 66.970 117.237,62.366 112.908,62.902 100.200 C 63.260 91.692,66.526 87.109,73.420 85.442 C 76.534 84.689,164.597 84.510,168.080 85.250 " stroke="none" fill="#040404" fill-rule="evenodd"></path></g></svg>